<?xml version="1.0" encoding="UTF-8"?>
<svg viewBox="0 0 943.10004 619.35388" xmlns="http://www.w3.org/2000/svg" xmlns:xlink="http://www.w3.org/1999/xlink">
 <defs>
  <filter id="ac">
   <feGaussianBlur stdDeviation="2.29202"/>
  </filter>
  <filter id="ab">
   <feGaussianBlur stdDeviation="2.02419"/>
  </filter>
  <filter id="aa">
   <feGaussianBlur stdDeviation="1.00413"/>
  </filter>
  <filter id="z">
   <feGaussianBlur stdDeviation=".60863"/>
  </filter>
  <filter id="d">
   <feGaussianBlur stdDeviation=".44758"/>
  </filter>
  <filter id="y">
   <feGaussianBlur stdDeviation="1.14991"/>
  </filter>
  <filter id="x">
   <feGaussianBlur stdDeviation="1.28974"/>
  </filter>
  <filter id="w">
   <feGaussianBlur stdDeviation="2.03226"/>
  </filter>
  <linearGradient id="b">
   <stop stop-color="#8e959d" offset="0"/>
   <stop stop-color="#8e959d" stop-opacity="0" offset="1"/>
  </linearGradient>
  <linearGradient id="a">
   <stop stop-color="#d3d3d3" offset="0"/>
   <stop stop-color="#f0f1f3" offset=".28374"/>
   <stop stop-color="#f8f8f9" offset=".59552"/>
   <stop stop-color="#c1c4cd" offset="1"/>
  </linearGradient>
  <linearGradient id="s" x1="453.45" x2="498.89" gradientUnits="userSpaceOnUse">
   <stop stop-color="#63747c" offset="0"/>
   <stop stop-color="#63747c" stop-opacity="0" offset="1"/>
  </linearGradient>
  <linearGradient id="r" x1="453.45" x2="498.89" gradientUnits="userSpaceOnUse">
   <stop stop-color="#1a1a1a" offset="0"/>
   <stop stop-color="#1a1a1a" stop-opacity="0" offset="1"/>
  </linearGradient>
  <linearGradient id="c" x1="167.51" x2="214.56" gradientUnits="userSpaceOnUse">
   <stop stop-color="#323639" offset="0"/>
   <stop stop-color="#323639" stop-opacity="0" offset="1"/>
  </linearGradient>
  <linearGradient id="v" x1="185.46" x2="182.27" y1="1351.1" y2="1243.7" gradientUnits="userSpaceOnUse" xlink:href="#a"/>
  <linearGradient id="u" x1="42.519" x2="24.164" y1="1417.2" y2="1375.3" gradientUnits="userSpaceOnUse" xlink:href="#a"/>
  <linearGradient id="t" x1="302.2" x2="206.42" y1="1130.9" y2="1077.7" gradientUnits="userSpaceOnUse" xlink:href="#a"/>
  <linearGradient id="q" x1="88.18" x2="68.572" y1="1393" y2="1321.2" gradientUnits="userSpaceOnUse" xlink:href="#b"/>
  <linearGradient id="p" x1="293.02" x2="257.53" y1="1146.2" y2="1134.1" gradientUnits="userSpaceOnUse" xlink:href="#b"/>
  <linearGradient id="o" x1="-366.35" x2="-116.16" gradientUnits="userSpaceOnUse" xlink:href="#a"/>
  <linearGradient id="n" x1="-394.58" x2="-193.58" gradientUnits="userSpaceOnUse" xlink:href="#a"/>
  <linearGradient id="m" x1="-203.45" x2="-150.84" gradientUnits="userSpaceOnUse" xlink:href="#a"/>
  <linearGradient id="l" x1="-184.9" x2="-158.9" gradientUnits="userSpaceOnUse" xlink:href="#b"/>
  <linearGradient id="k" x1="-356.97" x2="-224.11" gradientUnits="userSpaceOnUse" xlink:href="#b"/>
  <linearGradient id="j" x1="77.924" x2="196.2" gradientUnits="userSpaceOnUse" xlink:href="#a"/>
  <linearGradient id="i" x1="74.092" x2="133.4" gradientUnits="userSpaceOnUse" xlink:href="#a"/>
  <linearGradient id="h" x1="398.4" x2="516.68" gradientUnits="userSpaceOnUse" xlink:href="#a"/>
  <linearGradient id="g" x1="394.57" x2="453.88" gradientUnits="userSpaceOnUse" xlink:href="#a"/>
  <linearGradient id="f" x1="291.44" x2="311.13" y1="947.44" y2="987.35" gradientUnits="userSpaceOnUse" xlink:href="#a"/>
  <linearGradient id="e" x1="-414.44" x2="-355.14" y1="1548.4" y2="1556.1" gradientUnits="userSpaceOnUse" xlink:href="#a"/>
 </defs>
 <g transform="translate(417.12 -940.22)">
  <path d="m-245.3 1298.2-146.77 74.194 15.323 0.8064 54.032-19.355 50-19.355 58.871-25.806s6.4307-2.2514 2.4194-8.0645-33.871-2.4194-33.871-2.4194z" filter="url(#x)"/>
  <path d="m298.66 986.95-10.484-45.161 41.935 47.581-31.452-2.4194z" filter="url(#d)" stroke="#000"/>
  <path d="m-161.01 1256.3s4.7226-19.346 6.4516-28.226 4.0497-18.327 4.0323-25 1.942-10.669-2.4194-14.516-20.161-0.8065-20.161-0.8065l-29.032 54.032 41.129 14.516z" filter="url(#z)"/>
  <path d="m357.99 1184c-4.4728-0.022-9.1458 0.3544-15.969 1.2188-1.5361 0-3.0472 0.2216-4.5 0.6562-5.2711 0.8802-11.695 2.3017-17.781 3.875l-34.094-0.5312-2.5625 4.875 6.8438 11.375 2.625-1.6876c-1.3856 2.0688-2.4413 4.3533-3.3438 6.9376-0.47829 1.3696-0.84034 2.7799-1.125 4.1874l-10.344 3.9376 9.5312 6.375c0.0339 1.5051 0.10997 3.001 0.21875 4.4374 0.96109 7.9612 2.4666 12.511 10.5 18.531s25.036 7.5247 37.906 8.875 29.146 0.9075 38.719-0.8125 11.567-0.5672 18.531-6.4375 12.015-19.297 11.531-30.938-5.7544-23.079-13.938-28.75-15.95-4.8079-24.219-5.625c-3.1009-0.3064-5.7792-0.4863-8.5312-0.5z" filter="url(#aa)"/>
  <g transform="translate(-115.19 67.289)">
   <path d="m403.44 1146.1-14.228 5.4257 16.376 10.944-2.1486-16.37z"/>
   <path d="m398.98 1162.4c0.96109 7.9612 2.4504 12.528 10.484 18.548s25.033 7.5207 37.903 8.871 29.137 0.9135 38.71-0.8065 11.584-0.5813 18.548-6.4516 12.002-19.289 11.518-30.93-5.7544-23.076-13.937-28.747-15.924-4.8281-24.194-5.6452-13.62-0.6518-25 0.8065-32.843 6.7171-39.891 10.533-10.192 8.4606-12.44 14.899c-2.1665 6.2041-2.1549 12.938-1.7017 18.923z" fill="url(#h)"/>
   <path transform="matrix(1.0431 0 0 .93426 294.27 581.76)" d="m211.28 611.53c0 18.09-9.0634 32.755-20.244 32.755s-20.244-14.665-20.244-32.755 9.0634-32.755 20.244-32.755 20.244 14.665 20.244 32.755z" fill="none" stroke="#6e7a8a" stroke-width="6.5576"/>
   <path transform="matrix(.99978 0 0 1.0685 303.4 503.48)" d="m150.12 641.5c-12.834 1e-5 -23.238-14.872-23.238-33.217s10.404-33.217 23.238-33.217" fill="none" stroke="#e6e6e6" stroke-linecap="round" stroke-linejoin="round" stroke-width="1.6544"/>
   <path transform="matrix(.45764 0 0 .68168 397.14 736.49)" d="m211.28 611.53c0 18.09-9.0634 32.755-20.244 32.755s-20.244-14.665-20.244-32.755 9.0634-32.755 20.244-32.755 20.244 14.665 20.244 32.755z" fill="#323639" stroke="#323639" stroke-width="6.5576"/>
   <path transform="matrix(.99978 0 0 1.0685 325.36 503.48)" d="m150.12 641.5c-12.834 1e-5 -23.238-14.872-23.238-33.217s10.404-33.217 23.238-33.217" fill="none" stroke="#e6e6e6" stroke-linecap="round" stroke-linejoin="round" stroke-width="1.6544"/>
   <path transform="matrix(-.90331 0 0 .87718 665.76 616.49)" d="m211.28 611.53c0 18.09-9.0634 32.755-20.244 32.755s-20.244-14.665-20.244-32.755 9.0634-32.755 20.244-32.755 20.244 14.665 20.244 32.755z" fill="url(#c)"/>
   <path d="m474.45 1146.5 9.6942 5.7025-10.264 5.1322 0.57025-10.835z" fill="#999"/>
   <path d="m397.14 1122 56.74 0.8554-21.955 3.1364-17.678 3.9917-12.831 8.2686-6.843-11.405 2.5661-4.8472z" fill="url(#g)" stroke="#ccc"/>
  </g>
  <path d="m181.73 1243.4s16.876-21.819 28.226-41.936 25.268-53.086 37.097-79.839 25.621-58.091 33.871-80.645 16.935-54.032 16.935-54.032l16.935-0.80645 14.516 2.4194s-4.834 45.027-7.2581 66.129-4.5383 41.666-7.2581 60.484-5.6214 35.886-8.871 52.419-7.6323 34.549-10.484 46.774-6.4516 26.613-6.4516 26.613l-107.26 2.4193z" filter="url(#ab)"/>
  <path d="m-131.17 1262 314.52-16.936 108.87-6.4516 97.581-3.2258s24.906-0.1648 37.097 2.0161c15.233 2.7254 30.004 7.9193 44.355 13.71 7.7483 3.1264 15.195 7.0249 22.379 11.29 5.8988 3.5022 12.162 6.7666 16.935 11.694 4.2286 4.3645 9.3821 9.5855 9.879 15.322s-3.9317 10.197-8.6694 15.726-13.253 10.569-20.766 14.718-23.79 9.879-23.79 9.879-22.158 6.6346-31.452 8.871-11.841 3.1114-24.194 4.8387-30.907 3.1441-50 4.0323c-25.26 1.3327-12.88-0.5704-75.806 1.6129s-290.72 13.589-301.61 12.903-25.316-1.5366-40.927-4.0323-72.73-17.064-94.758-22.782-20.324-5.3574-38.508-10.887-63.177-22.372-68.347-24.597-11.15-4.711-11.29-10.081 4.9765-6.6183 12.903-9.4758 125.6-18.145 125.6-18.145z" fill="#1a1a1a" filter="url(#ac)"/>
  <path d="m-131.17 1262 314.52-16.936 108.87-6.4516 97.581-3.2258s24.906-0.1648 37.097 2.0161c15.233 2.7254 30.004 7.9193 44.355 13.71 7.7483 3.1264 15.195 7.0249 22.379 11.29 5.8988 3.5022 12.162 6.7666 16.935 11.694 4.2286 4.3645 9.3821 9.5855 9.879 15.322s-3.9317 10.197-8.6694 15.726-13.253 10.569-20.766 14.718-23.79 9.879-23.79 9.879-22.158 6.6346-31.452 8.871-11.841 3.1114-24.194 4.8387-30.907 3.1441-50 4.0323c-25.26 1.3327-12.88-0.5704-75.806 1.6129s-290.72 13.589-301.61 12.903-25.316-1.5366-40.927-4.0323-72.73-17.064-94.758-22.782-20.324-5.3574-38.508-10.887-63.177-22.372-68.347-24.597-11.15-4.711-11.29-10.081 4.9765-6.6183 12.903-9.4758 125.6-18.145 125.6-18.145z" fill="url(#v)"/>
  <path d="m181.73 1243.4s16.876-21.819 28.226-41.936 25.268-53.086 37.097-79.839 25.621-58.091 33.871-80.645 16.935-54.032 16.935-54.032l-8.4677-43.548 39.919 45.161s-4.834 45.027-7.2581 66.129-4.5383 41.666-7.2581 60.484-5.6214 35.886-8.871 52.419-7.6323 34.549-10.484 46.774-6.4516 26.613-6.4516 26.613l-107.26 2.4193z" fill="url(#t)"/>
  <path d="m205.12 1241.8c25.187-34.365 42.42-71.343 58.871-110.48 13.396-34.974 30.582-86.752 38.71-131.45l16.935-7.2581c-6.6507 54.264-9.987 99.719-21.244 146.46-11.387 47.284-22.954 74.541-31.175 104.34l-62.097-1.6129z" fill="url(#p)"/>
  <path d="m-247.3 1298.2-146.77 74.194 15.323 0.8064 54.032-19.355 50-19.355 58.871-25.806s6.4307-2.2514 2.4194-8.0645-33.871-2.4194-33.871-2.4194z" fill="url(#n)"/>
  <path d="m-161.82 1256.3s4.7226-19.346 6.4516-28.226 4.0497-18.327 4.0323-25 1.942-10.669-2.4194-14.516-20.161-0.8065-20.161-0.8065l-29.032 54.032 41.129 14.516z" fill="url(#m)"/>
  <path d="m-138.43 1264.8-16.129-10.887-181.45-130.65-29.032 3.2258 120.97 152.02 105.65-13.71z" filter="url(#w)"/>
  <path d="m-159.4 1199.9h-7.2581l-17.742 42.742 10.484 2.4193 14.516-45.161z" fill="url(#l)"/>
  <path d="m-116.66 1266.8-38.71-12.903-181.45-130.65-29.032 3.2258 120.16 154.03 129.03-13.71z" fill="url(#o)"/>
  <g transform="translate(-4.562 825.72)" fill="url(#s)" stroke="url(#r)">
   <path d="m498.39 437.44-9.2742-5.2419-3.2258 6.8548-14.919 7.6613-13.71 4.8387s-4.6477 7.801-2.9234 10.282 4.9769 1.5122 9.375 1.0081 14.516-6.4516 14.516-6.4516l16.935-8.4677 3.2258-10.484z"/>
   <path d="m469.25 447.22 9.2742 9.375"/>
   <path d="m485.58 439.46 9.9798 8.1653"/>
  </g>
  <path d="m-237.79 1299.3 13.686 2.281-132.87 58.165 119.18-60.446z" fill="url(#k)"/>
  <path d="m151.8 1397.3c-4.4719-0.022-9.148 0.3548-15.969 1.2188-1.5361 0-3.0472 0.2217-4.5 0.6562-5.2727 0.8802-11.692 2.3009-17.781 3.875l-34.094-0.5312-0.25 0.5-0.03125-0.094-36.781 17.969 27.938 4.5625 6.8438-3.6875 6.4375-3.1875 0.125 0.1875 2.625-1.6875c-1.3856 2.0687-2.4413 4.3533-3.3438 6.9375-0.47829 1.3697-0.84034 2.7799-1.125 4.1875l-10.344 3.9375 9.5312 6.375c0.03388 1.5051 0.10997 3.001 0.21875 4.4375 0.96109 7.9612 2.4666 12.511 10.5 18.531s25.036 7.5246 37.906 8.875 29.115 0.9075 38.688-0.8126 11.598-0.5671 18.562-6.4374 12.015-19.297 11.531-30.938-5.7544-23.079-13.938-28.75-15.95-4.8079-24.219-5.625c-3.1009-0.3064-5.7792-0.4862-8.5312-0.5z" filter="url(#y)"/>
  <path d="m-359.4 1553.9-57.722-5.8278 73.851 11.473 135.48-41.935 116.13-44.355 92.742-36.29 75.806-34.677 47.581-17.742 45.968-16.935 50-14.516 23.387-5.6451s-13.807-9.3045-26.613-12.903-29.318-5.8832-50-4.8387-58.104 7.9776-72.581 14.516-16.935 12.903-16.935 12.903l-171.77 85.484-64.516 31.452-59.677 25.806-75.806 29.839-65.323 24.194z" fill="url(#u)"/>
  <path d="m82.957 1425.6-14.228 5.4257 16.376 10.944-2.1486-16.37z"/>
  <path d="m78.503 1441.8c0.9611 7.9612 2.4504 12.528 10.484 18.548s25.033 7.5207 37.903 8.871 29.137 0.9135 38.71-0.8065 11.584-0.5813 18.548-6.4516 12.002-19.289 11.518-30.93-5.7544-23.076-13.937-28.747-15.924-4.8281-24.194-5.6452-13.62-0.6518-25 0.8065-32.843 6.7171-39.891 10.533-10.192 8.4606-12.44 14.899c-2.1665 6.2041-2.1549 12.938-1.7017 18.923z" fill="url(#j)"/>
  <path transform="matrix(1.0431 0 0 .93426 -26.205 861.18)" d="m211.28 611.53c0 18.09-9.0634 32.755-20.244 32.755s-20.244-14.665-20.244-32.755 9.0634-32.755 20.244-32.755 20.244 14.665 20.244 32.755z" fill="none" stroke="#6e7a8a" stroke-width="6.5576"/>
  <path transform="matrix(.99978 0 0 1.0685 -17.075 782.9)" d="m150.12 641.5c-12.834 1e-5 -23.238-14.872-23.238-33.217s10.404-33.217 23.238-33.217" fill="none" stroke="#e6e6e6" stroke-linecap="round" stroke-linejoin="round" stroke-width="1.6544"/>
  <path transform="matrix(.45764 0 0 .68168 76.664 1015.9)" d="m211.28 611.53c0 18.09-9.0634 32.755-20.244 32.755s-20.244-14.665-20.244-32.755 9.0634-32.755 20.244-32.755 20.244 14.665 20.244 32.755z" fill="#323639" stroke="#323639" stroke-width="6.5576"/>
  <path transform="matrix(.99978 0 0 1.0685 4.8796 782.9)" d="m150.12 641.5c-12.834 1e-5 -23.238-14.872-23.238-33.217s10.404-33.217 23.238-33.217" fill="none" stroke="#e6e6e6" stroke-linecap="round" stroke-linejoin="round" stroke-width="1.6544"/>
  <path transform="matrix(-.90331 0 0 .87718 345.28 895.91)" d="m211.28 611.53c0 18.09-9.0634 32.755-20.244 32.755s-20.244-14.665-20.244-32.755 9.0634-32.755 20.244-32.755 20.244 14.665 20.244 32.755z" fill="url(#c)"/>
  <path d="m153.97 1425.9 9.6942 5.7025-10.264 5.1322 0.57025-10.835z" fill="#999"/>
  <path d="m39.586 1419.7 36.781-17.963 4.8471 15.468-6.843 3.3502-6.843 3.7066-27.942-4.562z" fill="#5e6168"/>
  <path d="m76.658 1401.4 56.74 0.8554-21.955 3.1364-17.678 3.9917-12.831 8.2686-6.843-11.405 2.5661-4.8472z" fill="url(#i)" stroke="#ccc"/>
  <path d="m98.664 1348.2 40.323-8.0645 49.194-5.6452-29.032 17.742s-169.18 80.202-256.05 114.92c-80.054 31.992-146.63 53.104-243.95 85.887l-4.0323-2.4193c82.868-29.945 180.24-68.429 244.35-97.177 68.138-31.006 136.09-64.821 199.19-105.24z" fill="url(#q)"/>
  <path d="m298.66 986.95-10.484-45.161 41.935 47.581-31.452-2.4194z" fill="url(#f)" filter="url(#d)"/>
  <path d="m-359.43 1553.9 15.978 5.6451-72.984-11.441 57.006 5.7963z" fill="url(#e)"/>
  <g fill="#535d6c">
   <path transform="matrix(.9832 -.18253 .18253 .9832 0 831.16)" d="m-33.319 487.24h0.69021a2 2 0 0 1 2 2v3.9877a2 2 0 0 1 -2 2h-0.69021a2 2 0 0 1 -2 -2v-3.9877a2 2 0 0 1 2 -2"/>
   <path transform="matrix(.9832 -.18253 .18253 .9832 0 831.16)" d="m101.35 507.24h0.69021a2 2 0 0 1 2 2v3.9877a2 2 0 0 1 -2 2h-0.69021a2 2 0 0 1 -2 -2v-3.9877a2 2 0 0 1 2 -2"/>
   <path transform="matrix(.9832 -.18253 .18253 .9832 0 831.16)" d="m-27.198 488.15h0.69021a2 2 0 0 1 2 2v3.9877a2 2 0 0 1 -2 2h-0.69021a2 2 0 0 1 -2 -2v-3.9877a2 2 0 0 1 2 -2"/>
   <path transform="matrix(.9832 -.18253 .18253 .9832 0 831.16)" d="m-21.076 489.06h0.69021a2 2 0 0 1 2 2v3.9877a2 2 0 0 1 -2 2h-0.69021a2 2 0 0 1 -2 -2v-3.9877a2 2 0 0 1 2 -2"/>
   <path transform="matrix(.9832 -.18253 .18253 .9832 0 831.16)" d="m-14.955 489.97h0.69021a2 2 0 0 1 2 2v3.9877a2 2 0 0 1 -2 2h-0.69021a2 2 0 0 1 -2 -2v-3.9877a2 2 0 0 1 2 -2"/>
   <path transform="matrix(.9832 -.18253 .18253 .9832 0 831.16)" d="m-8.8337 490.88h0.69021a2 2 0 0 1 2 2v3.9877a2 2 0 0 1 -2 2h-0.69021a2 2 0 0 1 -2 -2v-3.9877a2 2 0 0 1 2 -2"/>
   <path transform="matrix(.9832 -.18253 .18253 .9832 0 831.16)" d="m-2.7123 491.79h0.69021a2 2 0 0 1 2 2v3.9877a2 2 0 0 1 -2 2h-0.69021a2 2 0 0 1 -2 -2v-3.9877a2 2 0 0 1 2 -2"/>
   <path transform="matrix(.9832 -.18253 .18253 .9832 0 831.16)" d="m3.409 492.7h0.69021a2 2 0 0 1 2 2v3.9877a2 2 0 0 1 -2 2h-0.69021a2 2 0 0 1 -2 -2v-3.9877a2 2 0 0 1 2 -2"/>
   <path transform="matrix(.9832 -.18253 .18253 .9832 0 831.16)" d="m9.5304,493.60681h.69021a2,2 0 0,1 2,2v3.9877a2,2 0 0,1 -2,2h-.69021a2,2 0 0,1 -2-2v-3.9877a2,2 0 0,1 2-2"/>
   <path transform="matrix(.9832 -.18253 .18253 .9832 0 831.16)" d="m15.652 494.52h0.69021a2 2 0 0 1 2 2v3.9877a2 2 0 0 1 -2 2h-0.69021a2 2 0 0 1 -2 -2v-3.9877a2 2 0 0 1 2 -2"/>
   <path transform="matrix(.9832 -.18253 .18253 .9832 0 831.16)" d="m21.773 495.42h0.69021a2 2 0 0 1 2 2v3.9877a2 2 0 0 1 -2 2h-0.69021a2 2 0 0 1 -2 -2v-3.9877a2 2 0 0 1 2 -2"/>
   <path transform="matrix(.9832 -.18253 .18253 .9832 0 831.16)" d="m27.894 496.33h0.69021a2 2 0 0 1 2 2v3.9877a2 2 0 0 1 -2 2h-0.69021a2 2 0 0 1 -2 -2v-3.9877a2 2 0 0 1 2 -2"/>
   <path transform="matrix(.9832 -.18253 .18253 .9832 0 831.16)" d="m34.016 497.24h0.69021a2 2 0 0 1 2 2v3.9877a2 2 0 0 1 -2 2h-0.69021a2 2 0 0 1 -2 -2v-3.9877a2 2 0 0 1 2 -2"/>
   <path transform="matrix(.9832 -.18253 .18253 .9832 0 831.16)" d="m40.137 498.15h0.69021a2 2 0 0 1 2 2v3.9877a2 2 0 0 1 -2 2h-0.69021a2 2 0 0 1 -2 -2v-3.9877a2 2 0 0 1 2 -2"/>
   <path transform="matrix(.9832 -.18253 .18253 .9832 0 831.16)" d="m46.259 499.06h0.69021a2 2 0 0 1 2 2v3.9877a2 2 0 0 1 -2 2h-0.69021a2 2 0 0 1 -2 -2v-3.9877a2 2 0 0 1 2 -2"/>
   <path transform="matrix(.9832 -.18253 .18253 .9832 0 831.16)" d="m52.38 499.97h0.69021a2 2 0 0 1 2 2v3.9877a2 2 0 0 1 -2 2h-0.69021a2 2 0 0 1 -2 -2v-3.9877a2 2 0 0 1 2 -2"/>
   <path transform="matrix(.9832 -.18253 .18253 .9832 0 831.16)" d="m58.501 500.88h0.69021a2 2 0 0 1 2 2v3.9877a2 2 0 0 1 -2 2h-0.69021a2 2 0 0 1 -2 -2v-3.9877a2 2 0 0 1 2 -2"/>
   <path transform="matrix(.9832 -.18253 .18253 .9832 0 831.16)" d="m64.623 501.79h0.69021a2 2 0 0 1 2 2v3.9877a2 2 0 0 1 -2 2h-0.69021a2 2 0 0 1 -2 -2v-3.9877a2 2 0 0 1 2 -2"/>
   <path transform="matrix(.9832 -.18253 .18253 .9832 0 831.16)" d="m70.744 502.7h0.69021a2 2 0 0 1 2 2v3.9877a2 2 0 0 1 -2 2h-0.69021a2 2 0 0 1 -2 -2v-3.9877a2 2 0 0 1 2 -2"/>
   <path transform="matrix(.9832 -.18253 .18253 .9832 0 831.16)" d="m76.865 503.61h0.69021a2 2 0 0 1 2 2v3.9877a2 2 0 0 1 -2 2h-0.69021a2 2 0 0 1 -2 -2v-3.9877a2 2 0 0 1 2 -2"/>
   <path transform="matrix(.9832 -.18253 .18253 .9832 0 831.16)" d="m82.987 504.51h0.69021a2 2 0 0 1 2 2v3.9877a2 2 0 0 1 -2 2h-0.69021a2 2 0 0 1 -2 -2v-3.9877a2 2 0 0 1 2 -2"/>
   <path transform="matrix(.9832 -.18253 .18253 .9832 0 831.16)" d="m89.108 505.42h0.69021a2 2 0 0 1 2 2v3.9877a2 2 0 0 1 -2 2h-0.69021a2 2 0 0 1 -2 -2v-3.9877a2 2 0 0 1 2 -2"/>
   <path transform="matrix(.9832 -.18253 .18253 .9832 0 831.16)" d="m95.229 506.33h0.69021a2 2 0 0 1 2 2v3.9877a2 2 0 0 1 -2 2h-0.69021a2 2 0 0 1 -2 -2v-3.9877a2 2 0 0 1 2 -2"/>
   <path transform="matrix(.9832 -.18253 .18253 .9832 0 831.16)" d="m-156.08 470.54h0.69021a2 2 0 0 1 2 2v3.9877a2 2 0 0 1 -2 2h-0.69021a2 2 0 0 1 -2 -2v-3.9877a2 2 0 0 1 2 -2"/>
   <path transform="matrix(.9832 -.18253 .18253 .9832 0 831.16)" d="m-149.96 471.45h0.69021a2 2 0 0 1 2 2v3.9877a2 2 0 0 1 -2 2h-0.69021a2 2 0 0 1 -2 -2v-3.9877a2 2 0 0 1 2 -2"/>
   <path transform="matrix(.9832 -.18253 .18253 .9832 0 831.16)" d="m-143.83 472.36h0.69021a2 2 0 0 1 2 2v3.9877a2 2 0 0 1 -2 2h-0.69021a2 2 0 0 1 -2 -2v-3.9877a2 2 0 0 1 2 -2"/>
   <path transform="matrix(.9832 -.18253 .18253 .9832 0 831.16)" d="m-137.71 473.27h0.69021a2 2 0 0 1 2 2v3.9877a2 2 0 0 1 -2 2h-0.69021a2 2 0 0 1 -2 -2v-3.9877a2 2 0 0 1 2 -2"/>
   <path transform="matrix(.9832 -.18253 .18253 .9832 0 831.16)" d="m-131.59 474.18h0.69021a2 2 0 0 1 2 2v3.9877a2 2 0 0 1 -2 2h-0.69021a2 2 0 0 1 -2 -2v-3.9877a2 2 0 0 1 2 -2"/>
   <path transform="matrix(.9832 -.18253 .18253 .9832 0 831.16)" d="m-125.47,475.0885h.69021a2,2 0 0,1 2,2v3.9877a2,2 0 0,1 -2,2h-.69021a2,2 0 0,1 -2-2v-3.9877a2,2 0 0,1 2-2"/>
   <path transform="matrix(.9832 -.18253 .18253 .9832 0 831.16)" d="m-119.35 476h0.69021a2 2 0 0 1 2 2v3.9877a2 2 0 0 1 -2 2h-0.69021a2 2 0 0 1 -2 -2v-3.9877a2 2 0 0 1 2 -2"/>
   <path transform="matrix(.9832 -.18253 .18253 .9832 0 831.16)" d="m-113.23 476.91h0.69021a2 2 0 0 1 2 2v3.9877a2 2 0 0 1 -2 2h-0.69021a2 2 0 0 1 -2 -2v-3.9877a2 2 0 0 1 2 -2"/>
   <path transform="matrix(.9832 -.18253 .18253 .9832 0 831.16)" d="m-107.11 477.82h0.69021a2 2 0 0 1 2 2v3.9877a2 2 0 0 1 -2 2h-0.69021a2 2 0 0 1 -2 -2v-3.9877a2 2 0 0 1 2 -2"/>
   <path transform="matrix(.9832 -.18253 .18253 .9832 0 831.16)" d="m-100.98 478.72h0.69021a2 2 0 0 1 2 2v3.9877a2 2 0 0 1 -2 2h-0.69021a2 2 0 0 1 -2 -2v-3.9877a2 2 0 0 1 2 -2"/>
   <path transform="matrix(.9832 -.18253 .18253 .9832 0 831.16)" d="m-94.863 479.63h0.69021a2 2 0 0 1 2 2v3.9877a2 2 0 0 1 -2 2h-0.69021a2 2 0 0 1 -2 -2v-3.9877a2 2 0 0 1 2 -2"/>
   <path transform="matrix(.9832 -.18253 .18253 .9832 0 831.16)" d="m-88.742 480.54h0.69021a2 2 0 0 1 2 2v3.9877a2 2 0 0 1 -2 2h-0.69021a2 2 0 0 1 -2 -2v-3.9877a2 2 0 0 1 2 -2"/>
   <path transform="matrix(.9832 -.18253 .18253 .9832 0 831.16)" d="m-82.62 481.45h0.69021a2 2 0 0 1 2 2v3.9877a2 2 0 0 1 -2 2h-0.69021a2 2 0 0 1 -2 -2v-3.9877a2 2 0 0 1 2 -2"/>
   <path transform="matrix(.9832 -.18253 .18253 .9832 0 831.16)" d="m-76.499 482.36h0.69021a2 2 0 0 1 2 2v3.9877a2 2 0 0 1 -2 2h-0.69021a2 2 0 0 1 -2 -2v-3.9877a2 2 0 0 1 2 -2"/>
   <path transform="matrix(.99923 -.03927 .03927 .99923 0 831.16)" d="m-137.9 482.12h0.69021a2 2 0 0 1 2 2v3.9877a2 2 0 0 1 -2 2h-0.69021a2 2 0 0 1 -2 -2v-3.9877a2 2 0 0 1 2 -2"/>
   <path transform="matrix(.99923 -.03927 .03927 .99923 0 831.16)" d="m-131.78 483.03h0.69021a2 2 0 0 1 2 2v3.9877a2 2 0 0 1 -2 2h-0.69021a2 2 0 0 1 -2 -2v-3.9877a2 2 0 0 1 2 -2"/>
   <path transform="matrix(.99923 -.03927 .03927 .99923 0 831.16)" d="m-125.66 483.94h0.69021a2 2 0 0 1 2 2v3.9877a2 2 0 0 1 -2 2h-0.69021a2 2 0 0 1 -2 -2v-3.9877a2 2 0 0 1 2 -2"/>
   <path transform="matrix(.99923 -.03927 .03927 .99923 0 831.16)" d="m-119.53 484.85h0.69021a2 2 0 0 1 2 2v3.9877a2 2 0 0 1 -2 2h-0.69021a2 2 0 0 1 -2 -2v-3.9877a2 2 0 0 1 2 -2"/>
   <path transform="matrix(.99923 -.03927 .03927 .99923 0 831.16)" d="m-113.41 485.76h0.69021a2 2 0 0 1 2 2v3.9877a2 2 0 0 1 -2 2h-0.69021a2 2 0 0 1 -2 -2v-3.9877a2 2 0 0 1 2 -2"/>
   <path transform="matrix(.99923 -.03927 .03927 .99923 0 831.16)" d="m-107.29 486.67h0.69021a2 2 0 0 1 2 2v3.9877a2 2 0 0 1 -2 2h-0.69021a2 2 0 0 1 -2 -2v-3.9877a2 2 0 0 1 2 -2"/>
   <path transform="matrix(.99923 -.03927 .03927 .99923 0 831.16)" d="m-101.17 487.58h0.69021a2 2 0 0 1 2 2v3.9877a2 2 0 0 1 -2 2h-0.69021a2 2 0 0 1 -2 -2v-3.9877a2 2 0 0 1 2 -2"/>
   <path transform="matrix(.99923 -.03927 .03927 .99923 0 831.16)" d="m-95.049 488.49h0.69021a2 2 0 0 1 2 2v3.9877a2 2 0 0 1 -2 2h-0.69021a2 2 0 0 1 -2 -2v-3.9877a2 2 0 0 1 2 -2"/>
   <path transform="matrix(.97257 -.2326 .2326 .97257 0 831.16)" d="m172.22 530.98h0.69021a2 2 0 0 1 2 2v3.9877a2 2 0 0 1 -2 2h-0.69021a2 2 0 0 1 -2 -2v-3.9877a2 2 0 0 1 2 -2"/>
   <path transform="matrix(.9832 -.18253 .18253 .9832 0 831.16)" d="m116.59 509.55h0.69021a2 2 0 0 1 2 2v3.9877a2 2 0 0 1 -2 2h-0.69021a2 2 0 0 1 -2 -2v-3.9877a2 2 0 0 1 2 -2"/>
   <path transform="matrix(.9832 -.18253 .18253 .9832 0 831.16)" d="m122.71 510.46h0.69021a2 2 0 0 1 2 2v3.9877a2 2 0 0 1 -2 2h-0.69021a2 2 0 0 1 -2 -2v-3.9877a2 2 0 0 1 2 -2"/>
   <path transform="matrix(.9832 -.18253 .18253 .9832 0 831.16)" d="m128.83 511.37h0.69021a2 2 0 0 1 2 2v3.9877a2 2 0 0 1 -2 2h-0.69021a2 2 0 0 1 -2 -2v-3.9877a2 2 0 0 1 2 -2"/>
   <path transform="matrix(.9832 -.18253 .18253 .9832 0 831.16)" d="m134.95 512.27h0.69021a2 2 0 0 1 2 2v3.9877a2 2 0 0 1 -2 2h-0.69021a2 2 0 0 1 -2 -2v-3.9877a2 2 0 0 1 2 -2"/>
   <path transform="matrix(.9832 -.18253 .18253 .9832 0 831.16)" d="m141.08 513.18h0.69021a2 2 0 0 1 2 2v3.9877a2 2 0 0 1 -2 2h-0.69021a2 2 0 0 1 -2 -2v-3.9877a2 2 0 0 1 2 -2"/>
   <path transform="matrix(.9832 -.18253 .18253 .9832 0 831.16)" d="m147.2 514.09h0.69021a2 2 0 0 1 2 2v3.9877a2 2 0 0 1 -2 2h-0.69021a2 2 0 0 1 -2 -2v-3.9877a2 2 0 0 1 2 -2"/>
   <path transform="matrix(.9832 -.18253 .18253 .9832 0 831.16)" d="m153.32 515h0.69021a2 2 0 0 1 2 2v3.9877a2 2 0 0 1 -2 2h-0.69021a2 2 0 0 1 -2 -2v-3.9877a2 2 0 0 1 2 -2"/>
   <path transform="matrix(.9832 -.18253 .18253 .9832 0 831.16)" d="m159.44 515.91h0.69021a2 2 0 0 1 2 2v3.9877a2 2 0 0 1 -2 2h-0.69021a2 2 0 0 1 -2 -2v-3.9877a2 2 0 0 1 2 -2"/>
   <path transform="matrix(.9832 -.18253 .18253 .9832 0 831.16)" d="m165.56 516.82h0.69021a2 2 0 0 1 2 2v3.9877a2 2 0 0 1 -2 2h-0.69021a2 2 0 0 1 -2 -2v-3.9877a2 2 0 0 1 2 -2"/>
   <path transform="matrix(.9832 -.18253 .18253 .9832 0 831.16)" d="m284.72 531.72h0.69021a2 2 0 0 1 2 2v3.9877a2 2 0 0 1 -2 2h-0.69021a2 2 0 0 1 -2 -2v-3.9877a2 2 0 0 1 2 -2"/>
   <path transform="matrix(.97257 -.2326 .2326 .97257 0 831.16)" d="m178.39308,532.13h.69021a2,2 0 0,1 2,2v3.9877a2,2 0 0,1 -2,2h-.69021a2,2 0 0,1 -2-2v-3.9877a2,2 0 0,1 2-2"/>
   <path transform="matrix(.97257 -.2326 .2326 .97257 0 831.16)" d="m184.47 533.26h0.69021a2 2 0 0 1 2 2v3.9877a2 2 0 0 1 -2 2h-0.69021a2 2 0 0 1 -2 -2v-3.9877a2 2 0 0 1 2 -2"/>
   <path transform="matrix(.97257 -.2326 .2326 .97257 0 831.16)" d="m190.55 534.39h0.69021a2 2 0 0 1 2 2v3.9877a2 2 0 0 1 -2 2h-0.69021a2 2 0 0 1 -2 -2v-3.9877a2 2 0 0 1 2 -2"/>
   <path transform="matrix(.97257 -.2326 .2326 .97257 0 831.16)" d="m196.63 535.52h0.69021a2 2 0 0 1 2 2v3.9877a2 2 0 0 1 -2 2h-0.69021a2 2 0 0 1 -2 -2v-3.9877a2 2 0 0 1 2 -2"/>
   <path transform="matrix(.97257 -.2326 .2326 .97257 0 831.16)" d="m202.72 536.65h0.69021a2 2 0 0 1 2 2v3.9877a2 2 0 0 1 -2 2h-0.69021a2 2 0 0 1 -2 -2v-3.9877a2 2 0 0 1 2 -2"/>
   <path transform="matrix(.97257 -.2326 .2326 .97257 0 831.16)" d="m208.8 537.77h0.69021a2 2 0 0 1 2 2v3.9877a2 2 0 0 1 -2 2h-0.69021a2 2 0 0 1 -2 -2v-3.9877a2 2 0 0 1 2 -2"/>
   <path transform="matrix(.97257 -.2326 .2326 .97257 0 831.16)" d="m214.88 538.9h0.69021a2 2 0 0 1 2 2v3.9877a2 2 0 0 1 -2 2h-0.69021a2 2 0 0 1 -2 -2v-3.9877a2 2 0 0 1 2 -2"/>
   <path transform="matrix(.97257 -.2326 .2326 .97257 0 831.16)" d="m220.96 540.03h0.69021a2 2 0 0 1 2 2v3.9877a2 2 0 0 1 -2 2h-0.69021a2 2 0 0 1 -2 -2v-3.9877a2 2 0 0 1 2 -2"/>
   <path transform="matrix(.97257 -.2326 .2326 .97257 0 831.16)" d="m227.04 541.16h0.69021a2 2 0 0 1 2 2v3.9877a2 2 0 0 1 -2 2h-0.69021a2 2 0 0 1 -2 -2v-3.9877a2 2 0 0 1 2 -2"/>
   <path transform="matrix(.97257 -.2326 .2326 .97257 0 831.16)" d="m233.13 541.87h0.69021a2 2 0 0 1 2 2v3.9877a2 2 0 0 1 -2 2h-0.69021a2 2 0 0 1 -2 -2v-3.9877a2 2 0 0 1 2 -2"/>
   <path transform="matrix(.97257 -.2326 .2326 .97257 0 831.16)" d="m240.97 542.98h0.69021a2 2 0 0 1 2 2v3.9877a2 2 0 0 1 -2 2h-0.69021a2 2 0 0 1 -2 -2v-3.9877a2 2 0 0 1 2 -2"/>
   <path transform="matrix(.97257 -.2326 .2326 .97257 0 831.16)" d="m248.33 544.27h0.69021a2 2 0 0 1 2 2v3.9877a2 2 0 0 1 -2 2h-0.69021a2 2 0 0 1 -2 -2v-3.9877a2 2 0 0 1 2 -2"/>
  </g>
  <path d="m25.457 1311.1 15.682-0.2851s-0.34233 8.6003 0.85537 12.831 6.2727 11.69 6.2727 11.69l-17.393 0.2852s-2.8548-6.394-3.9917-10.55-1.4256-13.971-1.4256-13.971z" fill="none" stroke="#808080" stroke-width=".2"/>
  <path d="m-145.98 1308.7 14.541-0.2851s0.79817 8.6003 1.9959 12.831 6.2727 11.69 6.2727 11.69l-14.826 1e-4s-4.2804-6.394-5.4174-10.55-2.5661-13.686-2.5661-13.686z" fill="none" stroke="#808080" stroke-width=".2"/>
  <path d="m-65.864 1338.9h32.789s6.7371 9.9788 11.12 13.971 14.826 9.6942 14.826 9.6942l-25.091-1.4256-20.529-2.281s-5.5194-6.6332-7.6983-9.9793-5.4174-9.9794-5.4174-9.9794z" fill="none" stroke="#808080" stroke-width=".2"/>
  <path d="m386.91 1277.3 19.674-2.5661s-0.74027 13.516 0.57024 20.814 8.5537 21.099 8.5537 21.099l-20.244 4.2768s-5.0781-10.666-6.843-17.963-1.7108-25.661-1.7108-25.661z" fill="none" stroke="#808080" stroke-width=".2"/>
  <path d="m263.98 1300.1 16.395-0.8554s0.53169 7.8673 1.6394 12.474 6.2015 14.47 6.2015 14.47l-18.248 1.283s-3.2829-9.104-4.2769-13.686-1.7107-13.686-1.7107-13.686z" fill="none" stroke="#808080" stroke-width=".2"/>
  <path d="m-131.73 1321.2c0 0.9448-0.76593 1.7107-1.7108 1.7107s-1.7107-0.7659-1.7107-1.7107 0.76593-1.7108 1.7107-1.7108 1.7108 0.766 1.7108 1.7108z" fill="#535d6c"/>
  <path transform="translate(170,2)" d="m-131.73 1321.2c0 0.9448-0.76593 1.7107-1.7108 1.7107s-1.7107-0.7659-1.7107-1.7107 0.76593-1.7108 1.7107-1.7108 1.7108 0.766 1.7108 1.7108z" fill="#535d6c"/>
  <path transform="translate(410,-8)" d="m-131.73 1321.2c0 0.9448-0.76593 1.7107-1.7108 1.7107s-1.7107-0.7659-1.7107-1.7107 0.76593-1.7108 1.7107-1.7108 1.7108 0.766 1.7108 1.7108z" fill="#535d6c"/>
  <path transform="translate(536,-24)" d="m-131.73 1321.2c0 0.9448-0.76593 1.7107-1.7108 1.7107s-1.7107-0.7659-1.7107-1.7107 0.76593-1.7108 1.7107-1.7108 1.7108 0.766 1.7108 1.7108z" fill="#535d6c"/>
 </g>
</svg>
