
<svg viewBox="0 0 744.09448 1052.3622" xmlns="http://www.w3.org/2000/svg">
 <defs>
  <linearGradient id="a" x1="353.48" x2="372.08" y1="325.17" y2="328.45" gradientTransform="matrix(1.5073 0 0 1.9946 -104.18 -208.93)" gradientUnits="userSpaceOnUse">
   <stop offset="0"/>
   <stop stop-opacity="0" offset="1"/>
  </linearGradient>
 </defs>
 <path d="m197.7 342.35 3.0648-15.324h-10.727l-7.6619 10.727 15.324 4.5972z" fill="#e4e4ff" fill-rule="evenodd" stroke="#000" stroke-width="3.875"/>
 <path d="m373.93 452.69s-12.259 6.1295-9.1943-1.5324 12.259-9.1943 1.5324-7.6619-1.5324 9.1943-10.727 1.5324 7.6619-12.259 7.6619-12.259l21.453-1.5324-10.727 21.453z" fill="#7171af" fill-rule="evenodd" stroke="#000" stroke-opacity=".27568" stroke-width="1.7339"/>
 <path d="m372.39 449.62c3.0648 16.856 18.389 15.324 18.389 15.324s10.727 1.5324 24.518 0 21.453 1.5324 27.583-3.0648 7.6619-3.0648 10.727-9.1943 4.5971-10.727 3.0648-15.324-1.5324-10.727-7.6619-13.791-13.791-3.0648-13.791-3.0648l-50.569 4.5971s-6.1295-1.5324-9.1943 7.6619-3.0648 16.856-3.0648 16.856z" fill="#e4e4ff" fill-rule="evenodd" stroke="#000" stroke-width="3.875"/>
 <path d="m141 392.92c13.791 7.6619 81.216 30.648 87.346 30.648s39.842 4.5971 47.504 4.5971 85.813-3.0648 124.12-6.1295 84.281-9.1943 110.33-10.727 117.99-9.1943 147.11-13.791 50.569-24.518 50.569-24.518 6.1295-4.5971 4.5971-10.727-27.583-18.389-27.583-18.389-4.5971-6.1295-22.986-10.727-22.986-6.1295-36.777-7.6619-95.008 4.5971-127.19 7.6619-199.21 18.389-199.21 18.389-30.648 3.0648-58.23 0-29.115-3.0648-47.504-12.259-96.54-84.281-96.54-84.281l-19.921 4.5972 64.36 114.93-7.6619 1.5324s1.5324 7.6619 7.6619 16.856z" fill="#e4e4ff" fill-rule="evenodd" stroke="#000" stroke-width="3.875"/>
 <path d="m373.93 413.25s88.878-21.453 113.4-19.921 6.1295 12.259 6.1295 12.259-15.324 7.6619-32.18 6.1295c-19.921 7.6619-87.346 1.5324-87.346 1.5324z" fill-opacity=".27568" fill-rule="evenodd"/>
 <path d="m335.62 420.51c6.1295-4.5972 101.14-18.389 107.27-18.389s16.856 3.0648 10.727 7.6619-332.53 101.14-332.53 101.14-24.518 3.0648-29.115-4.5971-26.05-26.05-26.05-26.05l18.389-1.5324 21.453 16.856 229.86-75.087z" fill="#e4e4ff" fill-rule="evenodd" stroke="#000" stroke-width="3.875"/>
 <path d="m494.98 331.63 22.986-64.36-22.986-30.648h-15.324l12.259 30.648-55.166 70.489 58.23-6.1295z" fill="#e4e4ff" fill-rule="evenodd" stroke="#000" stroke-width="3.875"/>
 <path d="m173.18 389.86-131.78 32.18-16.856-1.5324s-9.1943-3.0648-1.5324-6.1295 105.73-27.583 105.73-27.583 16.856-6.1295 27.583-3.0648 16.856 6.1295 16.856 6.1295z" fill="#e4e4ff" fill-rule="evenodd" stroke="#000" stroke-width="3.875"/>
 <path d="m219.16 397.52s332.53-26.05 372.37-29.115" fill="none" stroke="#000" stroke-dasharray="8.8750000 8.8750000" stroke-width="8.875"/>
 <path d="m635.96 351.55 1.5324 9.1943 16.856-1.5324s3.0648 1.5324 15.324-4.5972 13.791-10.727 13.791-10.727l-9.1943-6.1295s1.5324 6.1295-7.6619 7.6619-30.648 6.1295-30.648 6.1295z" fill-opacity=".22162" fill-rule="evenodd" stroke="#000" stroke-width="2.625"/>
 <path d="m436.75 459s-5.2319-4.3342-6.1295-12.445c-3.0648-9.1943-1.4394-10.185 3.0648-16.856 6.1295-6.1295 6.1295-7.6619 10.727-4.5971s8.2966 4.5971 7.6619 12.259c1.5324 7.6619 2.0742 12.801-4.0554 15.866-3.4206 5.2319-11.268 5.7736-11.268 5.7736z" fill="url(#a)" fill-rule="evenodd"/>
 <path d="m105.76 497.12 7.6619 7.6619 199.21-70.49s-182.35 56.698-191.55 59.763-15.324 3.0648-15.324 3.0648z" fill-opacity=".27568" fill-rule="evenodd"/>
 <path d="m493.45 268.8 19.921-1.5324s-3.0648-3.0648-18.389 13.791-33.712 35.245-33.712 35.245l32.18-47.504z" fill-opacity=".27568" fill-rule="evenodd"/>
 <path d="m145.6 371.47 82.749-16.856s-35.245 9.1943-49.036 16.856-33.712 0-33.712 0z" fill-opacity=".27568" fill-rule="evenodd"/>
 <path d="m196.17 353.08s1.5324 3.0648-18.389-12.259-76.619-73.554-76.619-73.554l75.087 84.281s3.0648 7.6619 10.727 6.1295 9.1943-4.5971 9.1943-4.5971z" fill-opacity=".27568" fill-rule="evenodd"/>
 <path d="m376.99 441.96c0 9.1943 0 12.259 3.0648 15.324s42.907-7.6619 42.907-7.6619-15.324-1.5324-29.115-4.5971-16.856-3.0648-16.856-3.0648z" fill-opacity=".27568" fill-rule="evenodd"/>
</svg>
